<?xml version="1.0" encoding="utf-8"?>
<!-- Generator: Adobe Illustrator 24.2.1, SVG Export Plug-In . SVG Version: 6.00 Build 0)  -->
<svg version="1.1" id="SVG-Visa" xmlns="http://www.w3.org/2000/svg" xmlns:xlink="http://www.w3.org/1999/xlink" x="0px" y="0px"
	 viewBox="0 0 288.73 25.98" style="enable-background:new 0 0 288.73 25.98;" xml:space="preserve">
<style type="text/css">
	.st0{fill-rule:evenodd;clip-rule:evenodd;fill:#151617;}
	.st1{fill-rule:evenodd;clip-rule:evenodd;fill:#FFFFFF;stroke:#EEEEEE;stroke-width:0.7328;}
	.st2{fill-rule:evenodd;clip-rule:evenodd;fill:url(#Base_Square_1_);}
	.st3{fill-rule:evenodd;clip-rule:evenodd;fill:#FFFFFF;}
	.st4{opacity:0.5;fill-rule:evenodd;clip-rule:evenodd;fill:#FFFFFF;enable-background:new    ;}
	.st5{fill-rule:evenodd;clip-rule:evenodd;fill:#050013;stroke:#231F20;stroke-width:0.3713;stroke-miterlimit:22.93;}
	.st6{fill-rule:evenodd;clip-rule:evenodd;fill:#009DD7;}
	.st7{fill-rule:evenodd;clip-rule:evenodd;fill:#FFF200;}
	.st8{fill-rule:evenodd;clip-rule:evenodd;fill:#E33206;}
	.st9{fill-rule:evenodd;clip-rule:evenodd;fill:#F8971F;}
	.st10{fill-rule:evenodd;clip-rule:evenodd;fill:#CA2028;}
	.st11{fill-rule:evenodd;clip-rule:evenodd;fill:#273C8E;}
	.st12{fill-rule:evenodd;clip-rule:evenodd;fill:#F79E1E;}
</style>
<g>
	<path id="IMG-boleto" class="st0" d="M29.51,0.84h4.08v19.07h-4.08V0.84z M20.61,0.84h1.53v19.07h-1.53L20.61,0.84L20.61,0.84z
		 M35.87,0.84h1.53v19.07h-1.53L35.87,0.84z M25.43,0.84h2.04v19.07h-2.04V0.84z M15.26,0.84h2.04v19.07h-2.04V0.84z M0,0.84h2.04
		v19.07H0V0.84z M5.85,0.84h0.51v19.07H5.85V0.84z M13.17,0.84h0.51v19.07h-0.51V0.84z M23.54,0.84h0.51v19.07h-0.51V0.84z
		 M28.31,0.84h0.25v19.07h-0.25V0.84z M3.37,0.84H4.4v19.07H3.37L3.37,0.84z M8.08,0.84h1.01v19.07H8.08V0.84z M10.68,0.84h1.03
		v19.07h-1.03L10.68,0.84z M34.28,0.84h1.03v19.07h-1.03L34.28,0.84z M18.51,0.84h1.01v19.07h-1.01V0.84z M4.24,25.62h1.6
		c0.41,0.02,0.82-0.09,1.16-0.3c0.28-0.2,0.43-0.51,0.42-0.84c0.01-0.22-0.05-0.43-0.18-0.61c-0.15-0.17-0.36-0.28-0.59-0.32v-0.04
		c0.19-0.03,0.36-0.13,0.47-0.27c0.13-0.17,0.19-0.37,0.18-0.58c0.03-0.31-0.13-0.6-0.41-0.76c-0.41-0.19-0.86-0.27-1.31-0.24H4.24
		V25.62L4.24,25.62z M5.16,22.36h0.47c0.2-0.01,0.39,0.02,0.57,0.1c0.12,0.07,0.18,0.19,0.18,0.32c0.01,0.14-0.05,0.27-0.16,0.35
		c-0.16,0.08-0.35,0.12-0.53,0.11H5.16C5.16,23.24,5.16,22.36,5.16,22.36z M5.71,23.9c0.51,0,0.76,0.16,0.76,0.49
		c0.01,0.15-0.06,0.3-0.18,0.4c-0.17,0.1-0.36,0.14-0.56,0.13H5.16V23.9L5.71,23.9L5.71,23.9z M12.89,22.14
		c-0.87-0.7-2.14-0.7-3.01,0c-0.38,0.42-0.57,0.96-0.53,1.51c-0.04,0.55,0.15,1.09,0.53,1.51c0.87,0.7,2.15,0.7,3.01,0
		C13.59,24.26,13.59,23.04,12.89,22.14z M10.58,22.65c0.2-0.23,0.5-0.36,0.81-0.34c0.72,0,1.08,0.44,1.08,1.33
		c0,0.89-0.35,1.33-1.08,1.33c-0.31,0.02-0.62-0.1-0.81-0.34C10.21,24.02,10.21,23.26,10.58,22.65L10.58,22.65z M18.47,25.63v-0.69
		h-1.72v-3.26h-0.91v3.95L18.47,25.63L18.47,25.63z M22.6,24.93h-1.56v-1.02h1.44v-0.69h-1.44v-0.87h1.56v-0.69h-2.46v3.95h2.46
		V24.93z M26.08,22.37h1.17v-0.7h-3.23v0.7h1.17v3.25h0.9V22.37z M32.09,22.13c-0.4-0.37-0.94-0.56-1.5-0.53
		c-0.56-0.03-1.11,0.15-1.52,0.52c-0.37,0.42-0.56,0.96-0.52,1.51c-0.04,0.55,0.15,1.09,0.52,1.51c0.87,0.7,2.15,0.7,3.01,0
		C32.78,24.25,32.78,23.03,32.09,22.13L32.09,22.13z M29.77,22.64c0.2-0.23,0.51-0.36,0.82-0.34c0.78,0.2,1.24,0.96,1.03,1.69
		c-0.14,0.48-0.53,0.85-1.04,0.98c-0.31,0.02-0.61-0.11-0.81-0.34C29.42,24.01,29.42,23.27,29.77,22.64L29.77,22.64z"/>
	<g id="SVG-American" transform="translate(0.5 0.5)">
		<path id="base" class="st1" d="M54.81-0.05h33.72c1.33,0,2.41,1.13,2.41,2.52c0,0,0,0,0,0v20.01c0,1.39-1.08,2.52-2.41,2.52l0,0
			H54.81c-1.33,0-2.41-1.13-2.41-2.52l0,0V2.46C52.41,1.07,53.48-0.05,54.81-0.05z"/>
		
			<radialGradient id="Base_Square_1_" cx="836.2519" cy="-397.8729" r="19.2588" gradientTransform="matrix(0.622 0 0 -0.6499 392.4539 -10.2929)" gradientUnits="userSpaceOnUse">
			<stop  offset="0" style="stop-color:#9DD2F2"/>
			<stop  offset="0.785" style="stop-color:#20ABE2"/>
			<stop  offset="0.96" style="stop-color:#1FA3DD"/>
			<stop  offset="1" style="stop-color:#3078BA"/>
		</radialGradient>
		<path id="Base_Square" class="st2" d="M92.07,0.07H53.53v25.05h38.54V0.07z"/>
		<path id="American_Express" class="st3" d="M56.86,9.4l-0.69-1.74L55.48,9.4 M72.02,8.71c-0.15,0.08-0.33,0.11-0.5,0.09H70.3V7.83
			h1.24c0.16-0.02,0.32,0.01,0.47,0.08c0.14,0.07,0.22,0.22,0.22,0.38C72.24,8.46,72.16,8.62,72.02,8.71z M80.73,9.4l-0.69-1.74
			l-0.7,1.74H80.73z M64.49,11.27h-1.03v-3.4L62,11.27h-0.88l-1.46-3.41v3.41h-2.05l-0.39-0.96h-2.1l-0.39,0.96h-1.09l1.8-4.34h1.49
			l1.71,4.11V6.93h1.65l1.31,2.94l1.2-2.94h1.68L64.49,11.27L64.49,11.27z M68.6,11.27h-3.36V6.93h3.36v0.91h-2.35v0.78h2.29v0.89
			h-2.29v0.87h2.35L68.6,11.27L68.6,11.27z M73.34,8.09c0.01,0.5-0.27,0.96-0.71,1.16c0.19,0.08,0.36,0.2,0.5,0.37
			c0.14,0.24,0.2,0.52,0.17,0.8v0.85h-1.02v-0.55c0.04-0.29-0.02-0.59-0.16-0.85c-0.21-0.16-0.47-0.22-0.73-0.18H70.3v1.58h-1.01
			V6.93h2.32c0.41-0.05,0.83,0.03,1.21,0.2C73.16,7.32,73.36,7.69,73.34,8.09L73.34,8.09z M74.94,11.26h-1.03V6.93h1.03V11.26z
			 M86.84,11.26h-1.42L83.51,8v3.26h-2.04l-0.39-0.96h-2.09l-0.39,0.96h-1.17c-0.53,0.03-1.05-0.14-1.46-0.48
			c-0.39-0.45-0.59-1.05-0.54-1.66c-0.05-0.62,0.15-1.23,0.54-1.69c0.42-0.38,0.97-0.56,1.53-0.5h0.98v0.93h-0.96
			c-0.28-0.04-0.56,0.06-0.77,0.26c-0.22,0.28-0.32,0.63-0.3,0.98c-0.03,0.37,0.07,0.73,0.28,1.02c0.2,0.17,0.45,0.25,0.7,0.22h0.45
			l1.42-3.41h1.51l1.69,4.11V6.93h1.53l1.77,3.02V6.93h1.03L86.84,11.26z M53.63,12.12h1.72l0.39-0.97h0.86L57,12.12h3.38v-0.73
			l0.3,0.74h1.75l0.31-0.75v0.75h8.39v-1.58h0.16c0.11,0,0.14,0.01,0.14,0.2v1.38h4.34v-0.37c0.5,0.25,1.06,0.38,1.61,0.37h1.83
			l0.39-0.96h0.87l0.39,0.96h3.52v-0.92l0.53,0.91h2.83V6.06h-2.8v0.72l-0.39-0.72H81.7v0.72l-0.36-0.72h-3.87
			c-0.58-0.03-1.16,0.09-1.69,0.36V6.06h-2.67v0.36c-0.32-0.26-0.73-0.39-1.14-0.36h-9.76l-0.66,1.56l-0.67-1.56h-3.07v0.72
			l-0.35-0.72h-2.62l-1.22,2.88L53.63,12.12L53.63,12.12z M89.41,15.33h-1.83c-0.14-0.02-0.29,0.01-0.42,0.07
			c-0.1,0.07-0.15,0.19-0.14,0.31c-0.01,0.15,0.08,0.28,0.22,0.32c0.12,0.04,0.26,0.06,0.39,0.05l0.55,0.01
			c0.41-0.04,0.82,0.08,1.14,0.35c0.03,0.03,0.07,0.07,0.1,0.11 M89.41,18.19c-0.34,0.41-0.86,0.61-1.37,0.55H86.1v-0.93h1.94
			c0.14,0.02,0.29-0.02,0.4-0.11c0.15-0.15,0.16-0.39,0.02-0.55c-0.01-0.01-0.01-0.02-0.02-0.02c-0.1-0.07-0.23-0.1-0.35-0.09
			c-0.95-0.04-2.13,0.03-2.13-1.34c0-0.72,0.55-1.3,1.24-1.31c0.07,0,0.14,0.01,0.2,0.02h2.01v-0.87h-1.86
			c-0.45-0.02-0.89,0.1-1.26,0.36v-0.36h-2.75c-0.43-0.02-0.85,0.1-1.2,0.36v-0.36h-4.91v0.36c-0.42-0.24-0.89-0.37-1.36-0.36h-3.24
			v0.36c-0.42-0.28-0.92-0.4-1.42-0.36h-3.63l-0.82,0.93l-0.79-0.93h-5.42v6.06h5.32l0.86-0.94l0.8,0.94h3.28v-1.42h0.32
			c0.47,0.03,0.95-0.05,1.4-0.21v1.64h2.7v-1.58h0.13c0.17,0,0.18,0.01,0.18,0.18v1.4h8.21c0.48,0.02,0.96-0.12,1.37-0.39v0.39h2.6
			c0.51,0.02,1.01-0.08,1.48-0.28L89.41,18.19L89.41,18.19z M85.4,16.45c0.22,0.25,0.33,0.58,0.31,0.92c0,0.93-0.57,1.37-1.58,1.37
			h-1.96v-0.93h1.95c0.14,0.01,0.29-0.02,0.41-0.11c0.08-0.07,0.12-0.18,0.11-0.29c0-0.11-0.04-0.22-0.12-0.29
			c-0.1-0.07-0.23-0.1-0.35-0.09c-0.94-0.04-2.12,0.03-2.12-1.34c-0.01-0.72,0.54-1.3,1.23-1.31c0.07,0,0.14,0,0.21,0.02h2.02v0.92
			h-1.84c-0.14-0.02-0.28,0.01-0.4,0.07c-0.16,0.12-0.19,0.35-0.08,0.51c0.04,0.06,0.09,0.1,0.15,0.13
			c0.12,0.04,0.26,0.06,0.39,0.05l0.55,0.02C84.66,16.07,85.07,16.19,85.4,16.45L85.4,16.45z M76.32,16.18
			c-0.15,0.08-0.33,0.11-0.5,0.09h-1.22V15.3h1.24c0.16-0.01,0.33,0.01,0.48,0.08c0.14,0.08,0.22,0.23,0.21,0.39
			C76.54,15.94,76.46,16.09,76.32,16.18L76.32,16.18z M76.93,16.72c0.19,0.07,0.36,0.2,0.49,0.36c0.14,0.24,0.2,0.52,0.16,0.8v0.85
			h-1v-0.54c0.04-0.29-0.02-0.6-0.16-0.85c-0.21-0.16-0.48-0.23-0.74-0.19h-1.08v1.58h-1.01V14.4h2.32c0.41-0.04,0.83,0.03,1.21,0.2
			c0.34,0.19,0.54,0.57,0.51,0.97C77.66,16.07,77.38,16.53,76.93,16.72L76.93,16.72z M78.2,14.4h3.36v0.9H79.2v0.79h2.3v0.89h-2.3
			v0.86l2.36,0.01v0.9H78.2L78.2,14.4L78.2,14.4z M71.42,16.41h-1.3V15.3h1.32c0.28-0.06,0.55,0.14,0.6,0.43
			c0.01,0.04,0.01,0.07,0.01,0.11c0.01,0.31-0.22,0.57-0.52,0.58C71.49,16.41,71.45,16.41,71.42,16.41L71.42,16.41z M69.11,18.35
			l-1.54-1.76l1.54-1.71V18.35L69.11,18.35z M65.13,17.84h-2.47v-0.87h2.21v-0.89h-2.21V15.3h2.52l1.1,1.27L65.13,17.84z
			 M73.13,15.84c0,1.21-0.88,1.46-1.76,1.46h-1.25v1.45h-1.95l-1.23-1.43l-1.29,1.44h-3.98V14.4h4.05l1.24,1.42l1.28-1.42h3.21
			C72.23,14.4,73.13,14.63,73.13,15.84L73.13,15.84z"/>
		<path id="American_Express-2" class="st4" d="M56.86,9.4l-0.69-1.74L55.48,9.4 M72.02,8.71c-0.15,0.08-0.33,0.11-0.5,0.09H70.3
			V7.83h1.24c0.16-0.02,0.32,0.01,0.47,0.08c0.14,0.07,0.22,0.22,0.22,0.38C72.24,8.46,72.16,8.62,72.02,8.71z M80.73,9.4
			l-0.69-1.74l-0.7,1.74H80.73z M64.49,11.27h-1.03v-3.4L62,11.27h-0.88l-1.46-3.41v3.41h-2.05l-0.39-0.96h-2.1l-0.39,0.96h-1.09
			l1.8-4.34h1.49l1.71,4.11V6.93h1.65l1.31,2.94l1.2-2.94h1.68L64.49,11.27L64.49,11.27z M68.6,11.27h-3.36V6.93h3.36v0.91h-2.35
			v0.78h2.29v0.89h-2.29v0.87h2.35L68.6,11.27L68.6,11.27z M73.34,8.09c0.01,0.5-0.27,0.96-0.71,1.16c0.19,0.08,0.36,0.2,0.5,0.37
			c0.14,0.24,0.2,0.52,0.17,0.8v0.85h-1.02v-0.55c0.04-0.29-0.02-0.59-0.16-0.85c-0.21-0.16-0.47-0.22-0.73-0.18H70.3v1.58h-1.01
			V6.93h2.32c0.41-0.05,0.83,0.03,1.21,0.2C73.16,7.32,73.36,7.69,73.34,8.09L73.34,8.09z M74.94,11.26h-1.03V6.93h1.03V11.26z
			 M86.84,11.26h-1.42L83.51,8v3.26h-2.04l-0.39-0.96h-2.09l-0.39,0.96h-1.17c-0.53,0.03-1.05-0.14-1.46-0.48
			c-0.39-0.45-0.59-1.05-0.54-1.66c-0.05-0.62,0.15-1.23,0.54-1.69c0.42-0.38,0.97-0.56,1.53-0.5h0.98v0.93h-0.96
			c-0.28-0.04-0.56,0.06-0.77,0.26c-0.22,0.28-0.32,0.63-0.3,0.98c-0.03,0.37,0.07,0.73,0.28,1.02c0.2,0.17,0.45,0.25,0.7,0.22h0.45
			l1.42-3.41h1.51l1.69,4.11V6.93h1.53l1.77,3.02V6.93h1.03L86.84,11.26z M53.63,12.12h1.72l0.39-0.97h0.86L57,12.12h3.38v-0.73
			l0.3,0.74h1.75l0.31-0.75v0.75h8.39v-1.58h0.16c0.11,0,0.14,0.01,0.14,0.2v1.38h4.34v-0.37c0.5,0.25,1.06,0.38,1.61,0.37h1.83
			l0.39-0.96h0.87l0.39,0.96h3.52v-0.92l0.53,0.91h2.83V6.06h-2.8v0.72l-0.39-0.72H81.7v0.72l-0.36-0.72h-3.87
			c-0.58-0.03-1.16,0.09-1.69,0.36V6.06h-2.67v0.36c-0.32-0.26-0.73-0.39-1.14-0.36h-9.76l-0.66,1.56l-0.67-1.56h-3.07v0.72
			l-0.35-0.72h-2.62l-1.22,2.88L53.63,12.12L53.63,12.12z M89.41,15.33h-1.83c-0.14-0.02-0.29,0.01-0.42,0.07
			c-0.1,0.07-0.15,0.19-0.14,0.31c-0.01,0.15,0.08,0.28,0.22,0.32c0.12,0.04,0.26,0.06,0.39,0.05l0.55,0.01
			c0.41-0.04,0.82,0.08,1.14,0.35c0.03,0.03,0.07,0.07,0.1,0.11 M89.41,18.19c-0.34,0.41-0.86,0.61-1.37,0.55H86.1v-0.93h1.94
			c0.14,0.02,0.29-0.02,0.4-0.11c0.15-0.15,0.16-0.39,0.02-0.55c-0.01-0.01-0.01-0.02-0.02-0.02c-0.1-0.07-0.23-0.1-0.35-0.09
			c-0.95-0.04-2.13,0.03-2.13-1.34c0-0.72,0.55-1.3,1.24-1.31c0.07,0,0.14,0.01,0.2,0.02h2.01v-0.87h-1.86
			c-0.45-0.02-0.89,0.1-1.26,0.36v-0.36h-2.75c-0.43-0.02-0.85,0.1-1.2,0.36v-0.36h-4.91v0.36c-0.42-0.24-0.89-0.37-1.36-0.36h-3.24
			v0.36c-0.42-0.28-0.92-0.4-1.42-0.36h-3.63l-0.82,0.93l-0.79-0.93h-5.42v6.06h5.32l0.86-0.94l0.8,0.94h3.28v-1.42h0.32
			c0.47,0.03,0.95-0.05,1.4-0.21v1.64h2.7v-1.58h0.13c0.17,0,0.18,0.01,0.18,0.18v1.4h8.21c0.48,0.02,0.96-0.12,1.37-0.39v0.39h2.6
			c0.51,0.02,1.01-0.08,1.48-0.28L89.41,18.19L89.41,18.19z M85.4,16.45c0.22,0.25,0.33,0.58,0.31,0.92c0,0.93-0.57,1.37-1.58,1.37
			h-1.96v-0.93h1.95c0.14,0.01,0.29-0.02,0.41-0.11c0.08-0.07,0.12-0.18,0.11-0.29c0-0.11-0.04-0.22-0.12-0.29
			c-0.1-0.07-0.23-0.1-0.35-0.09c-0.94-0.04-2.12,0.03-2.12-1.34c-0.01-0.72,0.54-1.3,1.23-1.31c0.07,0,0.14,0,0.21,0.02h2.02v0.92
			h-1.84c-0.14-0.02-0.28,0.01-0.4,0.07c-0.16,0.12-0.19,0.35-0.08,0.51c0.04,0.06,0.09,0.1,0.15,0.13
			c0.12,0.04,0.26,0.06,0.39,0.05l0.55,0.02C84.66,16.07,85.07,16.19,85.4,16.45L85.4,16.45z M76.32,16.18
			c-0.15,0.08-0.33,0.11-0.5,0.09h-1.22V15.3h1.24c0.16-0.01,0.33,0.01,0.48,0.08c0.14,0.08,0.22,0.23,0.21,0.39
			C76.54,15.94,76.46,16.09,76.32,16.18L76.32,16.18z M76.93,16.72c0.19,0.07,0.36,0.2,0.49,0.36c0.14,0.24,0.2,0.52,0.16,0.8v0.85
			h-1v-0.54c0.04-0.29-0.02-0.6-0.16-0.85c-0.21-0.16-0.48-0.23-0.74-0.19h-1.08v1.58h-1.01V14.4h2.32c0.41-0.04,0.83,0.03,1.21,0.2
			c0.34,0.19,0.54,0.57,0.51,0.97C77.66,16.07,77.38,16.53,76.93,16.72L76.93,16.72z M78.2,14.4h3.36v0.9H79.2v0.79h2.3v0.89h-2.3
			v0.86l2.36,0.01v0.9H78.2L78.2,14.4L78.2,14.4z M71.42,16.41h-1.3V15.3h1.32c0.28-0.06,0.55,0.14,0.6,0.43
			c0.01,0.04,0.01,0.07,0.01,0.11c0.01,0.31-0.22,0.57-0.52,0.58C71.49,16.41,71.45,16.41,71.42,16.41L71.42,16.41z M69.11,18.35
			l-1.54-1.76l1.54-1.71V18.35L69.11,18.35z M65.13,17.84h-2.47v-0.87h2.21v-0.89h-2.21V15.3h2.52l1.1,1.27L65.13,17.84z
			 M73.13,15.84c0,1.21-0.88,1.46-1.76,1.46h-1.25v1.45h-1.95l-1.23-1.43l-1.29,1.44h-3.98V14.4h4.05l1.24,1.42l1.28-1.42h3.21
			C72.23,14.4,73.13,14.63,73.13,15.84L73.13,15.84z"/>
	</g>
	<g id="SVG-Ello" transform="translate(0.285 0.285)">
		<path id="Path_1065" class="st5" d="M120.7,0.48c6.9,0,12.5,5.6,12.5,12.5s-5.6,12.5-12.5,12.5s-12.5-5.6-12.5-12.5
			S113.8,0.48,120.7,0.48C120.7,0.48,120.7,0.48,120.7,0.48z"/>
		<path id="Path_1066" class="st3" d="M115.33,9.63c1.77,0,3.32,1.21,3.73,2.94l-1.55,0.68l-1.58,0.69l-3.8,1.66
			c-1.18-1.77-0.7-4.15,1.07-5.33C113.84,9.86,114.58,9.63,115.33,9.63L115.33,9.63z M116.98,12.02l-3.84,1.65
			c-0.01-0.07-0.01-0.13-0.01-0.2c0-1.21,0.98-2.2,2.2-2.2C115.96,11.28,116.56,11.55,116.98,12.02L116.98,12.02z M118.02,16.22
			c-1.29,1.27-3.29,1.47-4.79,0.46l0.9-1.37c0.87,0.55,2,0.44,2.74-0.27L118.02,16.22L118.02,16.22z M119.58,15.27l-0.01-7.27h1.37
			v7.07c-0.01,0.07,0.03,0.14,0.1,0.16l1.2,0.47l-0.54,1.4l-1.4-0.59C119.77,16.29,119.58,15.96,119.58,15.27L119.58,15.27z"/>
		<path id="Path_1067" class="st6" d="M124.76,15.15c-0.96-0.74-1.13-2.12-0.39-3.07c0.07-0.09,0.14-0.17,0.22-0.25l-0.89-1.44
			c-1.67,1.32-1.96,3.75-0.63,5.43c0.24,0.31,0.53,0.57,0.85,0.79L124.76,15.15z"/>
		<path id="Path_1068" class="st7" d="M125.37,11.36c1.13-0.41,2.37,0.17,2.8,1.29l1.7-0.14c-0.5-2.07-2.59-3.35-4.67-2.84
			c-0.18,0.04-0.37,0.1-0.54,0.17L125.37,11.36z"/>
		<path id="Path_1069" class="st8" d="M128.3,13.53c-0.06,1.21-1.09,2.14-2.3,2.08c-0.14-0.01-0.29-0.03-0.43-0.06l-0.67,1.55
			c2.03,0.66,4.21-0.44,4.87-2.47c0.11-0.34,0.17-0.69,0.19-1.04L128.3,13.53z"/>
	</g>
	<g>
		<path id="Circle_Orange" class="st9" d="M191.85,12.74c0,7.04-5.71,12.74-12.74,12.74s-12.74-5.71-12.74-12.74S172.07,0,179.11,0
			c0,0,0,0,0,0C186.15,0,191.85,5.71,191.85,12.74z"/>
		<path id="Circle_Red" class="st10" d="M161.93,0.11c-6.98,0.08-12.57,5.8-12.49,12.78c0.08,6.98,5.8,12.57,12.78,12.49
			c3.1-0.04,6.08-1.21,8.37-3.3c0.47-0.42,0.9-0.87,1.3-1.35h-2.61c-0.35-0.41-0.67-0.85-0.95-1.3h4.5
			c0.27-0.44,0.52-0.89,0.75-1.35h-5.99c-0.21-0.43-0.38-0.88-0.54-1.33h7.05c0.44-1.29,0.66-2.64,0.66-4c0-0.91-0.1-1.82-0.3-2.7
			h-7.79c0.1-0.45,0.22-0.9,0.36-1.33h7.06c-0.16-0.46-0.34-0.91-0.55-1.35h-5.96c0.21-0.46,0.46-0.9,0.73-1.33h4.5
			c-0.3-0.47-0.63-0.92-0.99-1.35h-2.51c0.39-0.46,0.82-0.88,1.28-1.28c-2.35-2.12-5.41-3.3-8.57-3.29L161.93,0.11L161.93,0.11z"/>
		<path id="MasterCard" class="st3" d="M166.6,15.96l0.18-1.15c-0.1,0-0.24,0.04-0.35,0.04c-0.48,0-0.53-0.25-0.5-0.43l0.38-2.33
			h0.72l0.17-1.26h-0.67l0.14-0.79h-1.35c-0.03,0.02-0.81,4.42-0.81,4.95c-0.08,0.55,0.3,1.05,0.85,1.13
			c0.08,0.01,0.15,0.01,0.23,0.01C165.92,16.12,166.27,16.06,166.6,15.96L166.6,15.96z M167.03,13.78c-0.13,1.16,0.7,2.22,1.87,2.35
			c0.16,0.02,0.32,0.02,0.48,0c0.49,0.03,0.98-0.05,1.44-0.22l0.24-1.3c-0.46,0.19-0.94,0.31-1.44,0.33c-1.46,0-1.2-1.08-1.2-1.08
			h2.75c0.08-0.4,0.14-0.81,0.17-1.22c0.09-0.99-0.64-1.87-1.64-1.96c-0.1-0.01-0.2-0.01-0.3,0
			C168.04,10.68,167.03,12.13,167.03,13.78L167.03,13.78z M169.41,11.88c0.76,0,0.62,0.85,0.62,0.92h-1.51
			C168.55,12.32,168.92,11.93,169.41,11.88L169.41,11.88z M178,15.96l0.24-1.47c-0.35,0.18-0.73,0.29-1.12,0.33
			c-0.74,0.01-1.35-0.57-1.36-1.31c0-0.07,0-0.14,0.01-0.2c0-1.59,0.83-2.47,1.76-2.47c0.44,0.01,0.87,0.15,1.25,0.39l0.22-1.43
			c-0.49-0.19-1-0.3-1.52-0.33c-1.57,0-3.09,1.34-3.09,3.88c0,1.68,0.83,2.79,2.45,2.79C177.22,16.12,177.61,16.06,178,15.96
			L178,15.96z M159.14,10.7c-0.56,0-1.12,0.1-1.64,0.3l-0.19,1.16c0.48-0.17,0.98-0.25,1.48-0.24c0.5,0,0.87,0.05,0.87,0.46
			c0.01,0.12-0.01,0.23-0.04,0.34c0,0-0.4-0.03-0.58-0.03c-1.13-0.19-2.19,0.58-2.38,1.7c-0.02,0.1-0.03,0.19-0.03,0.29
			c-0.09,0.7,0.4,1.35,1.1,1.44c0.07,0.01,0.14,0.01,0.21,0.01c0.53,0.01,1.04-0.21,1.39-0.62l-0.05,0.52h1.19l0.53-3.71
			c0.02-0.88-0.67-1.62-1.55-1.64C159.34,10.68,159.24,10.68,159.14,10.7L159.14,10.7z M159.43,13.71c0.06,0.61-0.36,1.17-0.96,1.28
			c-0.27,0.02-0.5-0.18-0.53-0.45c0-0.02,0-0.04,0-0.06c0-0.37,0.2-0.81,1.2-0.81C159.23,13.67,159.33,13.68,159.43,13.71
			L159.43,13.71z M162.27,16.1c0.95,0.17,1.86-0.46,2.03-1.42c0.02-0.1,0.03-0.2,0.03-0.3c0-1.68-1.62-1.34-1.62-2.01
			c0-0.33,0.27-0.44,0.75-0.44c0.19,0,0.92,0.06,0.92,0.06l0.18-1.19c-0.41-0.07-0.84-0.11-1.26-0.1c-0.94-0.16-1.84,0.47-2,1.42
			c-0.02,0.11-0.03,0.22-0.02,0.34c0,1.54,1.7,1.38,1.7,2.04c0,0.43-0.48,0.47-0.85,0.47c-0.41-0.01-0.81-0.08-1.2-0.2l-0.18,1.18
			C161.24,16.08,161.76,16.13,162.27,16.1L162.27,16.1z M189.24,9.63l-0.3,1.8c-0.31-0.41-0.79-0.67-1.31-0.7
			c-1.25,0-2.28,1.49-2.28,3.19c-0.16,1.04,0.55,2.01,1.59,2.17c0.03,0,0.06,0.01,0.09,0.01c0.48,0,0.94-0.2,1.26-0.56l-0.06,0.48
			h1.32l1.03-6.4L189.24,9.63z M188.61,13.14c0.11,0.75-0.35,1.47-1.09,1.66c-0.49,0-0.72-0.41-0.72-1.05
			c0-1.05,0.48-1.73,1.07-1.73C188.36,12.02,188.61,12.35,188.61,13.14L188.61,13.14z M151.79,16.03l0.83-4.83l0.12,4.83h0.93
			l1.74-4.83l-0.77,4.83h1.39l1.07-6.4h-2.16l-1.34,3.93l-0.07-3.93h-1.97l-1.08,6.4h1.31H151.79z M172.69,16.04
			c0.4-2.23,0.47-4.04,1.41-3.71c0.08-0.54,0.26-1.07,0.51-1.56c-0.09-0.01-0.18-0.01-0.26-0.01c-0.46,0.1-0.85,0.41-1.06,0.82
			l0.12-0.76h-1.26l-0.84,5.21L172.69,16.04L172.69,16.04z M181.13,10.7c-0.56,0-1.12,0.1-1.64,0.3l-0.19,1.16
			c0.48-0.17,0.98-0.25,1.48-0.24c0.5,0,0.87,0.05,0.87,0.46c0.01,0.12-0.01,0.23-0.04,0.34c0,0-0.4-0.04-0.58-0.04
			c-1.13-0.19-2.19,0.57-2.38,1.7c-0.02,0.1-0.03,0.2-0.03,0.29c-0.09,0.7,0.4,1.35,1.11,1.44c0.07,0.01,0.14,0.01,0.21,0.01
			c0.53,0.01,1.04-0.21,1.39-0.62l-0.04,0.52h1.2l0.53-3.71c0.02-0.88-0.68-1.62-1.56-1.64C181.34,10.67,181.24,10.68,181.13,10.7
			L181.13,10.7z M181.42,13.71c0.06,0.61-0.36,1.17-0.96,1.28c-0.27,0.02-0.5-0.18-0.52-0.45c0-0.02,0-0.04,0-0.06
			c0-0.37,0.2-0.81,1.19-0.81C181.23,13.67,181.33,13.68,181.42,13.71L181.42,13.71z M184.08,16.04c0.4-2.23,0.47-4.04,1.41-3.71
			c0.09-0.54,0.26-1.07,0.5-1.56c-0.09-0.01-0.17-0.01-0.26-0.01c-0.46,0.1-0.85,0.41-1.06,0.82l0.12-0.76h-1.26l-0.85,5.21
			L184.08,16.04L184.08,16.04z"/>
	</g>
	<g>
		<path id="Visa_Logo" class="st11" d="M235.97,25.62l4.13-24.23h6.59l-4.12,24.23H235.97z M266.49,1.99
			c-1.9-0.68-3.9-1.02-5.91-1.01c-6.51,0-11.11,3.28-11.15,7.99c-0.04,3.49,3.29,5.43,5.78,6.59c2.56,1.19,3.44,1.95,3.42,3
			c-0.02,1.63-2.04,2.37-3.95,2.37c-2.14,0.06-4.26-0.37-6.21-1.27l-0.83-0.38l-0.93,5.42c2.35,0.87,4.84,1.31,7.34,1.29
			c6.94,0,11.45-3.24,11.5-8.27c0.02-2.76-1.75-4.85-5.54-6.59c-2.3-1.13-3.72-1.87-3.7-3c0-1.01,1.2-2.09,3.78-2.09
			c1.69-0.04,3.37,0.28,4.94,0.93l0.59,0.28l0.9-5.26 M283.41,1.43h-5.1c-1.46-0.19-2.87,0.63-3.45,2l-9.8,22.21h6.91
			c0,0,1.12-2.99,1.39-3.65l8.45,0.01c0.2,0.85,0.81,3.63,0.81,3.63h6.11l-5.34-24.21 M275.27,17.04l2.63-6.78
			c-0.04,0.06,0.54-1.4,0.88-2.31l0.44,2.08c0,0,1.28,5.79,1.53,7.01L275.27,17.04L275.27,17.04z M230.45,1.42l-6.46,16.51
			l-0.7-3.35c-1.68-4.42-4.93-8.04-9.13-10.16l5.89,21.19h6.98l10.39-24.18h-6.98"/>
		<path id="Yellow_Swoosh" class="st12" d="M217.99,1.4h-10.63l-0.09,0.51c8.28,1.99,13.75,6.85,16.02,12.66l-2.31-11.12
			C220.62,2.11,219.35,1.24,217.99,1.4"/>
	</g>
</g>
</svg>
