<svg xmlns="http://www.w3.org/2000/svg" xmlns:xlink="http://www.w3.org/1999/xlink" width="69" height="69" viewBox="0 0 69 69">
  <defs>
    <clipPath id="clip-path">
      <path id="Path_54" data-name="Path 54" d="M60.266-41.687c.71.309.763.432.812,1.15,0,5.725.018,11.45,0,17.175A13.78,13.78,0,0,1,47.73-10.027q-17.179.053-34.358,0A13.745,13.745,0,0,1,.027-23.36q-.055-17.165,0-34.332A13.709,13.709,0,0,1,13.456-71.024H40.442c.9.062,1.07.37,1.2.972a1.278,1.278,0,0,1-1.2,1.468c-9.018,0-18.036-.028-27.055,0A11.246,11.246,0,0,0,2.47-57.676q-.055,17.151,0,34.3A11.225,11.225,0,0,0,13.387-12.467q17.164.054,34.328,0A11.325,11.325,0,0,0,58.636-23.448v-17.09A1.266,1.266,0,0,1,60.266-41.687ZM63.384-79c4.07.081,7.326,5.189,4.629,9.061L46.452-39.382a1.217,1.217,0,0,1-.4.359l-9.818,5.559a1.267,1.267,0,0,1-1.794-1.327l2.4-10.78a1.228,1.228,0,0,1,.194-.438L58.6-76.566A5.836,5.836,0,0,1,63.384-79Zm-.114,2.439A3.39,3.39,0,0,0,60.6-75.154L39.18-44.8l-1.753,7.861,7.188-4.07c7.141-10.121,14.345-20.2,21.423-30.364a3.416,3.416,0,0,0-2.606-5.183C63.378-76.56,63.323-76.561,63.27-76.561Z" transform="translate(0 79)" fill="#ffa84c" clip-rule="evenodd"/>
    </clipPath>
    <clipPath id="clip-path-2">
      <path id="Path_53" data-name="Path 53" d="M-1203-8.9H194.468V-1057H-1203Z" transform="translate(1203 1057)" fill="#ffa84c"/>
    </clipPath>
  </defs>
  <g id="IMG-Servico" clip-path="url(#clip-path)">
    <g id="Group_52" data-name="Group 52" transform="translate(-1050.722 -854.2)" clip-path="url(#clip-path-2)">
      <path id="Path_52" data-name="Path 52" d="M-5-84H72.734V-6.266H-5Z" transform="translate(1051.354 933.833)" fill="#ffa84c"/>
    </g>
  </g>
</svg>
