<svg xmlns="http://www.w3.org/2000/svg" width="229.887" height="159.277" viewBox="0 0 229.887 159.277">
  <g id="Group_1537" data-name="Group 1537" transform="translate(45.042 106.093)">
    <path id="Path_1113" data-name="Path 1113" d="M0,0-45.042,27.05-2.835,52.4a5.5,5.5,0,0,0,5.67,0L41.9,28.938a2.2,2.2,0,0,0,0-3.777Z" fill="#0bb6a0"/>
    <g id="Group_1549" data-name="Group 1549" transform="translate(45.042 -81.151)">
      <path id="Path_1114" data-name="Path 1114" d="M0,0-45.042,27.05V-22.185a2.755,2.755,0,0,1,4.172-2.361Z" fill="#0bb6a0"/>
      <g id="Group_1548" data-name="Group 1548" transform="translate(-84.74 50.891)">
        <path id="Path_1115" data-name="Path 1115" d="M0,0H0A11.015,11.015,0,0,0-5.344,9.442V57.31L79.4,6.419A11.016,11.016,0,0,0,84.74-3.024V-50.892Z" fill="#6acfb9"/>
        <g id="Group_1547" data-name="Group 1547" transform="translate(121.663 -34.852)">
          <path id="Path_1116" data-name="Path 1116" d="M0,0H0C-3.719,0-5.208,2-5.208,5.545c0,3.483,1.455,5.445,5.208,5.445,3.687,0,5.174-1.962,5.174-5.445C5.174,1.961,3.72,0,0,0ZM11.4,16.163H4.9V14.811H4.836A9.236,9.236,0,0,1-.845,16.468c-7.371,0-10.855-4.633-10.855-10.923C-11.7-.812-8.285-5.479-.845-5.479A9.221,9.221,0,0,1,4.836-3.787H4.9v-8.488H11.4Z" fill="#30255e"/>
          <g id="Group_1546" data-name="Group 1546" transform="translate(30.467 0.135)">
            <path id="Path_1117" data-name="Path 1117" d="M0,0H-1.86C-5.851,0-7.507,1.928-7.507,5.444v10.55H-14v-21.3h6.492v2.537h.067c1.218-1.792,3.213-2.773,6.121-2.773H0Z" fill="#30255e"/>
            <g id="Group_1545" data-name="Group 1545" transform="translate(13.797 -0.135)">
              <path id="Path_1118" data-name="Path 1118" d="M0,0H0C-3.653,0-5.242,2.1-5.242,5.478c0,3.347,1.623,5.512,5.276,5.512S5.275,8.859,5.275,5.478C5.275,2.13,3.651,0,0,0ZM0,16.468H0c-7.812,0-11.734-4.836-11.734-10.99S-7.812-5.512,0-5.512c7.844,0,11.767,4.8,11.767,10.99C11.767,11.6,7.777,16.468,0,16.468Z" fill="#30255e"/>
              <g id="Group_1544" data-name="Group 1544" transform="translate(27.254)">
                <path id="Path_1119" data-name="Path 1119" d="M0,0H0C-3.719,0-5.207,1.961-5.207,5.444c0,3.55,1.455,5.511,5.174,5.511S5.174,8.96,5.174,5.444,3.72,0,0,0ZM.812,16.5h0a8.948,8.948,0,0,1-5.681-1.725h-.068V23.3h-6.492V-5.174h6.492v1.353h.068A9.45,9.45,0,0,1,.812-5.479c7.405,0,10.855,4.667,10.855,10.957C11.667,11.8,8.285,16.5.812,16.5Z" fill="#30255e"/>
                <g id="Group_1543" data-name="Group 1543" transform="translate(-60.207 29.47)">
                  <path id="Path_1120" data-name="Path 1120" d="M0,0H6.222V5.039H0v8.893c0,1.555.812,2.231,1.86,2.231a3.939,3.939,0,0,0,2.975-1.589L8.487,18.26c-2.4,2.2-4.4,3.382-7.439,3.382-5.173,0-7.541-2.537-7.541-7.677V-6.12H0Z" fill="#30255e"/>
                  <g id="Group_1542" data-name="Group 1542" transform="translate(22.012 5.173)">
                    <path id="Path_1121" data-name="Path 1121" d="M0,0H0C-3.651,0-5.241,2.1-5.241,5.478c0,3.347,1.623,5.511,5.276,5.511s5.241-2.13,5.241-5.511C5.276,2.13,3.653,0,0,0ZM0,16.468H0c-7.811,0-11.733-4.836-11.733-10.99S-7.811-5.512,0-5.512c7.846,0,11.768,4.8,11.768,10.99C11.768,11.6,7.778,16.468,0,16.468Z" fill="#30255e"/>
                    <g id="Group_1541" data-name="Group 1541" transform="translate(-17.009 30.457)">
                      <path id="Path_1122" data-name="Path 1122" d="M0,0H0C-3.719,0-5.207,1.961-5.207,5.444c0,3.55,1.455,5.511,5.173,5.511S5.174,8.96,5.174,5.444,3.72,0,0,0ZM.812,16.5h0a8.948,8.948,0,0,1-5.681-1.725h-.068V23.3h-6.492V-5.174h6.492v1.353h.068A9.45,9.45,0,0,1,.812-5.479c7.405,0,10.854,4.667,10.854,10.957C11.666,11.8,8.285,16.5.812,16.5Z" fill="#30255e"/>
                      <g id="Group_1540" data-name="Group 1540" transform="translate(29.724 0.135)">
                        <path id="Path_1123" data-name="Path 1123" d="M0,0H-1.86C-5.85,0-7.507,1.928-7.507,5.444v10.55H-14v-21.3h6.492v2.537h.068c1.217-1.792,3.212-2.773,6.12-2.773H0Z" fill="#30255e"/>
                        <g id="Group_1539" data-name="Group 1539" transform="translate(-538.101 273.422)">
                          <path id="Path_1124" data-name="Path 1124" d="M547.671-257.428h-6.493v-21.3h6.493Zm-3.247-22.821h0a3.323,3.323,0,0,1-3.381-3.448,3.3,3.3,0,0,1,3.381-3.449,3.312,3.312,0,0,1,3.416,3.449A3.332,3.332,0,0,1,544.424-280.249Z" fill="#30255e"/>
                          <g id="Group_1538" data-name="Group 1538" transform="translate(574.858 -257.428)">
                            <path id="Path_1125" data-name="Path 1125" d="M0,0H-6.493V-12.612c0-2.266-.472-3.551-4.259-3.551-2.942,0-4.836,1.387-4.836,3.787V0h-6.493V-21.336h6.493v1.792h.067a9.087,9.087,0,0,1,6.087-2.1c5.85,0,9.434,3.179,9.434,8.488Z" fill="#30255e"/>
                            <g id="Group_1537-2" data-name="Group 1537" transform="translate(11.598 -16.264)">
                              <path id="Path_1126" data-name="Path 1126" d="M0,0V8.894c0,1.555.812,2.232,1.86,2.232a3.944,3.944,0,0,0,2.976-1.59l3.651,3.686c-2.4,2.2-4.4,3.382-7.439,3.382-5.173,0-7.54-2.537-7.54-7.677V-11.158H0v6.12H6.222V0Z" fill="#30255e"/>
                            </g>
                          </g>
                        </g>
                      </g>
                    </g>
                  </g>
                </g>
              </g>
            </g>
          </g>
        </g>
      </g>
    </g>
  </g>
</svg>
