<svg xmlns="http://www.w3.org/2000/svg" width="472.921" height="472.741" viewBox="0 0 472.921 472.741">
  <g id="_x37_18-_menu__x2C__user_interface__x2C__ui__x2C_" transform="translate(-20.014 -20.106)">
    <g id="Group_1493" data-name="Group 1493">
      <g id="Group_1489" data-name="Group 1489">
        <path id="Path_1076" data-name="Path 1076" d="M229.222,235.922H26.722a6.708,6.708,0,0,1-6.708-6.708V26.814a6.708,6.708,0,0,1,6.708-6.708h202.5a6.708,6.708,0,0,1,6.708,6.708v202.4A6.708,6.708,0,0,1,229.222,235.922ZM33.431,222.506H222.514V33.522H33.431Z" fill="#FFFFFF"/>
      </g>
      <g id="Group_1490" data-name="Group 1490">
        <path id="Path_1077" data-name="Path 1077" d="M486.227,492.847h-202.5a6.709,6.709,0,0,1-6.709-6.708V283.74a6.709,6.709,0,0,1,6.709-6.708h202.5a6.708,6.708,0,0,1,6.708,6.708v202.4A6.708,6.708,0,0,1,486.227,492.847Zm-195.79-13.416H479.519V290.448H290.437Z" fill="#FFFFFF"/>
      </g>
      <g id="Group_1491" data-name="Group 1491">
        <path id="Path_1078" data-name="Path 1078" d="M486.227,235.922h-202.5a6.709,6.709,0,0,1-6.709-6.708V26.814a6.709,6.709,0,0,1,6.709-6.708h202.5a6.708,6.708,0,0,1,6.708,6.708v202.4A6.708,6.708,0,0,1,486.227,235.922Zm-195.79-13.416H479.519V33.522H290.437Z" fill="#FFFFFF"/>
      </g>
      <g id="Group_1492" data-name="Group 1492">
        <path id="Path_1079" data-name="Path 1079" d="M229.222,492.847H26.722a6.708,6.708,0,0,1-6.708-6.708V283.74a6.708,6.708,0,0,1,6.708-6.708h202.5a6.708,6.708,0,0,1,6.708,6.708v202.4A6.708,6.708,0,0,1,229.222,492.847ZM33.431,479.431H222.514V290.448H33.431Z" fill="#FFFFFF"/>
      </g>
    </g>
  </g>
</svg>
