<?xml version="1.0" encoding="utf-8"?>
<!-- Generator: Adobe Illustrator 24.2.1, SVG Export Plug-In . SVG Version: 6.00 Build 0)  -->
<svg version="1.1" id="Layer_1" xmlns="http://www.w3.org/2000/svg" xmlns:xlink="http://www.w3.org/1999/xlink" x="0px" y="0px"
	 viewBox="0 0 20 20.02" style="enable-background:new 0 0 20 20.02;" xml:space="preserve">
<style type="text/css">
	.st0{fill:#FFFFFF;}
</style>
<g>
	<path class="st0" d="M10.56,6.7c1.01-1.02,1.92-1.96,2.85-2.89c0.87-0.88,1.74-1.75,2.62-2.62c0.84-0.84,2.11-0.87,2.89-0.08
		c0.82,0.83,0.81,2.07-0.05,2.93c-4.78,4.8-9.56,9.59-14.34,14.38c-0.15,0.15-0.36,0.26-0.56,0.32c-0.87,0.25-1.75,0.48-2.63,0.71
		c-0.61,0.16-0.84-0.08-0.67-0.7c0.23-0.87,0.45-1.74,0.7-2.6c0.07-0.22,0.2-0.45,0.36-0.62c1.53-1.55,3.08-3.1,4.62-4.64
		c0.1-0.1,0.19-0.21,0.31-0.34C4.42,8.33,2.2,6.11,0,3.92C1.35,2.58,2.63,1.3,3.92,0C6.09,2.18,8.3,4.41,10.56,6.7z M16.39,2.2
		c-4.69,4.7-9.37,9.39-14,14.03c0.49,0.49,1.02,1.02,1.48,1.49c4.65-4.66,9.33-9.35,14-14.03C17.39,3.19,16.87,2.67,16.39,2.2z
		 M6.93,4.28C6.74,4.06,6.56,3.86,6.28,3.55C6.01,3.91,5.75,4.25,5.56,4.5c-0.3-0.22-0.51-0.38-0.84-0.63
		c0.38-0.3,0.71-0.55,1.02-0.79c-0.23-0.27-0.4-0.47-0.57-0.67C4.95,2.59,4.78,2.74,4.59,2.89c-0.2-0.2-0.38-0.38-0.58-0.57
		c0.17-0.19,0.32-0.37,0.44-0.51C4.25,1.58,4.06,1.37,3.9,1.19C3.01,2.09,2.14,2.95,1.31,3.78c2.01,2.02,4.02,4.05,6.02,6.05
		C8,9.16,8.69,8.46,9.4,7.76C9.26,7.6,9.11,7.43,8.95,7.25C9.11,7.06,9.26,6.9,9.43,6.71c-0.21-0.19-0.4-0.37-0.59-0.55
		C8.79,6.12,8.75,6.08,8.71,6.04C8.46,6.39,8.22,6.73,7.97,7.08C7.94,7.04,7.91,7.01,7.88,6.97C7.69,6.8,7.5,6.62,7.29,6.43
		C7.61,6.1,7.9,5.8,8.18,5.5c-0.2-0.23-0.38-0.41-0.56-0.62c-0.2,0.18-0.38,0.33-0.51,0.44C6.88,5.14,6.67,4.97,6.46,4.8
		C6.65,4.59,6.8,4.43,6.93,4.28z"/>
	<path class="st0" d="M16.19,18.96c0.93-0.93,1.76-1.76,2.57-2.59c0.05-0.05,0.02-0.17,0.03-0.26c-0.09,0.02-0.21,0-0.26,0.05
		c-0.1,0.11-0.17,0.26-0.28,0.44c-0.28-0.32-0.46-0.52-0.65-0.74c0.13-0.14,0.28-0.31,0.46-0.51c-0.21-0.18-0.4-0.35-0.69-0.6
		c-0.23,0.31-0.48,0.65-0.74,0.99c-0.31-0.28-0.51-0.46-0.82-0.73c0.39-0.29,0.72-0.54,1.08-0.82c-0.28-0.26-0.46-0.44-0.67-0.64
		c-0.17,0.15-0.34,0.3-0.55,0.48c-0.18-0.21-0.34-0.41-0.53-0.64c0.13-0.14,0.28-0.31,0.42-0.47c-0.2-0.2-0.38-0.39-0.65-0.66
		c-0.25,0.32-0.51,0.65-0.8,1.02c-0.26-0.28-0.45-0.47-0.69-0.73c0.34-0.27,0.65-0.53,0.99-0.81c-0.28-0.26-0.47-0.44-0.68-0.64
		c-0.15,0.13-0.31,0.27-0.52,0.46c-0.19-0.2-0.37-0.4-0.55-0.59c0.37-0.38,0.73-0.73,1.05-1.06c2.1,2.11,4.21,4.24,6.28,6.33
		c-1.22,1.23-2.5,2.51-3.75,3.77c-2.09-2.09-4.2-4.19-6.35-6.34c0.17-0.15,0.36-0.32,0.59-0.53C12.38,15.07,14.26,17,16.19,18.96z"
		/>
</g>
</svg>
