<svg xmlns="http://www.w3.org/2000/svg" xmlns:xlink="http://www.w3.org/1999/xlink" width="25.964" height="25.964" viewBox="0 0 25.964 25.964">
  <defs>
    <clipPath id="clip-path">
      <path id="Path_15" data-name="Path 15" d="M16.757-58.312A10.3,10.3,0,0,1,6.27-56.54,10.418,10.418,0,0,1,.144-67.684,10.369,10.369,0,0,1,9.892-76l.26,0a10.4,10.4,0,0,1,9.867,8.254,10.313,10.313,0,0,1-2.571,8.764l8.367,8.136c.18.19.148.253.146.358a.5.5,0,0,1-.816.332ZM10.028-75.038a9.4,9.4,0,0,0-8.883,7.244A9.323,9.323,0,0,0,3.7-59.357a9.307,9.307,0,0,0,9.836,1.926A9.432,9.432,0,0,0,19.073-67.57a9.359,9.359,0,0,0-8.809-7.466Z" transform="translate(0 76)" fill="#00ac92" clip-rule="evenodd"/>
    </clipPath>
    <clipPath id="clip-path-2">
      <path id="Path_14" data-name="Path 14" d="M-1204-105.04h546.613V-515H-1204Z" transform="translate(1204 515)" fill="#00ac92"/>
    </clipPath>
  </defs>
  <g id="Group_17" data-name="Group 17" transform="translate(0 0)">
    <g id="Group_16" data-name="Group 16" transform="translate(0)" clip-path="url(#clip-path)">
      <g id="Group_15" data-name="Group 15" transform="translate(-411.326 -149.977)" clip-path="url(#clip-path-2)">
        <path id="Path_13" data-name="Path 13" d="M-5-81H24.38V-51.62H-5Z" transform="translate(414.618 229.269)" fill="#00ac92"/>
      </g>
    </g>
  </g>
</svg>
