<svg xmlns="http://www.w3.org/2000/svg" xmlns:xlink="http://www.w3.org/1999/xlink" width="35.221" height="30.123" viewBox="0 0 35.221 30.123">
  <defs>
    <clipPath id="clip-path">
      <path id="Path_6" data-name="Path 6" d="M14.689-41.951a3.694,3.694,0,0,1,3.164,5.118,3.69,3.69,0,0,1-5.507,1.179c-2.122-1.8-1.136-6.231,2.252-6.3Zm14.086,0a3.694,3.694,0,0,1,3.163,5.118,3.69,3.69,0,0,1-5.507,1.179c-2.121-1.8-1.135-6.231,2.252-6.3Zm-14.161,1.3a2.349,2.349,0,0,0-1.553,3.9c1.413,1.383,4.814-.139,3.626-2.609A2.318,2.318,0,0,0,14.614-40.653Zm14.086,0a2.35,2.35,0,0,0-1.553,3.9c1.414,1.383,4.814-.139,3.626-2.609A2.317,2.317,0,0,0,28.7-40.653Zm5.852-2.272H10.143a1.232,1.232,0,0,1-.764-2.107l2.445-2.055c-1.09-4.906-2.1-9.83-3.271-14.718A2.555,2.555,0,0,0,6.142-63.7H.562c-.689-.049-.808-1.24,0-1.3,1.874,0,3.748-.01,5.623,0A3.876,3.876,0,0,1,9.82-62.074l.506,2.277.052-.005c7.566,0,15.132-.048,22.7,0A2.232,2.232,0,0,1,35.2-57.7c.049,2.518,0,5.036,0,7.554A2.221,2.221,0,0,1,33.239-48L12.8-46.214l-2.369,1.991h24.12a.774.774,0,0,1,.545.3A.68.68,0,0,1,34.552-42.925ZM10.613-58.5,13.05-47.538c6.7-.582,13.4-1.091,20.093-1.758a.887.887,0,0,0,.761-.833c.031-2.516.078-5.034,0-7.55a.887.887,0,0,0-.845-.826Z" transform="translate(0 65)" fill="#00ac92" clip-rule="evenodd"/>
    </clipPath>
    <clipPath id="clip-path-2">
      <path id="Path_5" data-name="Path 5" d="M-1062-350.876h741.5V-907H-1062Z" transform="translate(1062 907)" fill="#00ac92"/>
    </clipPath>
  </defs>
  <g id="Group_8" data-name="Group 8" transform="translate(0 0)">
    <g id="Group_7" data-name="Group 7" clip-path="url(#clip-path)">
      <g id="Group_6" data-name="Group 6" transform="translate(-492.169 -390.213)" clip-path="url(#clip-path-2)">
        <path id="Path_4" data-name="Path 4" d="M-5-70H34.856v34.758H-5Z" transform="translate(494.852 457.896)" fill="#00ac92"/>
      </g>
    </g>
  </g>
</svg>
