<svg xmlns="http://www.w3.org/2000/svg" width="63.618" height="67.698" viewBox="0 0 63.618 67.698">
  <path id="Intersection_1" data-name="Intersection 1" d="M-13909.716,8408.438c-4.519-4.069-2.419-14.1,4.795-14.255h.2c4.994.1,9.1,6.351,6.736,11.588a7.773,7.773,0,0,1-7.049,4.427A6.916,6.916,0,0,1-13909.716,8408.438Zm1.521-2.492c3.012,3.13,10.253-.315,7.723-5.909a4.918,4.918,0,0,0-4.386-2.916h-.027C-13908.542,8397.2-13911.259,8402.756-13908.2,8405.945Zm-31.515,2.492c-4.518-4.069-2.418-14.1,4.795-14.255h.193c5,.1,9.106,6.351,6.736,11.588a7.765,7.765,0,0,1-7.045,4.427A6.911,6.911,0,0,1-13939.71,8408.438Zm1.521-2.492c3.011,3.13,10.249-.315,7.722-5.909a4.92,4.92,0,0,0-4.385-2.916h-.028C-13938.542,8397.2-13941.252,8402.756-13938.188,8405.945Zm-6.215-13.968c-2.067-.042-3.364-3.154-1.626-4.771l5.209-4.651c-2.324-11.107-4.477-22.258-6.969-33.319a5.517,5.517,0,0,0-5.132-4.287h-1.7v-2.45h4.286a8.617,8.617,0,0,1,5.241,6.124l1.079,5.155a.592.592,0,0,1,.109-.01c16.112,0,32.223-.109,48.332,0a4.908,4.908,0,0,1,4.525,4.76c.1,5.7,0,11.4,0,17.1a4.918,4.918,0,0,1-4.179,4.854l-43.52,4.048-5.044,4.5h51.36a1.611,1.611,0,0,1,1.161.676,1.55,1.55,0,0,1-1.161,2.265Zm6.194-10.445c14.262-1.317,28.538-2.471,42.783-3.979a1.969,1.969,0,0,0,1.623-1.886c.066-5.7.165-11.4,0-17.091a1.942,1.942,0,0,0-1.8-1.872h-47.8Z" transform="translate(13954.616 -8342.499)" fill="#67b94e"/>
</svg>
