<svg xmlns="http://www.w3.org/2000/svg" xmlns:xlink="http://www.w3.org/1999/xlink" width="29.348" height="26.779" viewBox="0 0 29.348 26.779">
  <defs>
    <clipPath id="clip-path">
      <path id="Path_3" data-name="Path 3" d="M14.49-58.181A15.6,15.6,0,0,1,29.22-47.2a1.151,1.151,0,0,1,.1.678c-.165.5-.856.378-1.072-.328a14.484,14.484,0,0,0-10.09-9.879A14.3,14.3,0,0,0,5.63-54.063a14.933,14.933,0,0,0-4.6,7.191s-.369.71-.839.33.031-1.266.365-2.081a15.1,15.1,0,0,1,13.59-9.555ZM14.463-73a6.872,6.872,0,0,1,6.53,5.387,6.845,6.845,0,0,1-3.968,7.377,6.949,6.949,0,0,1-8.618-3.2,6.852,6.852,0,0,1,3.187-8.938A6.784,6.784,0,0,1,14.463-73Zm-.08,1.022a5.814,5.814,0,0,0-5.5,4.454,5.794,5.794,0,0,0,3.338,6.346,5.876,5.876,0,0,0,7.806-4.358,5.775,5.775,0,0,0-5.457-6.44Z" transform="translate(0 73)" fill="#FFFFFF" clip-rule="evenodd"/>
    </clipPath>
    <clipPath id="clip-path-2">
      <path id="Path_2" data-name="Path 2" d="M-921-73.79h586.947V-514H-921Z" transform="translate(921 514)" fill="#FFFFFF"/>
    </clipPath>
  </defs>
  <g id="Group_5" data-name="Group 5" transform="translate(0 0)">
    <g id="Group_4" data-name="Group 4" transform="translate(0 0)" clip-path="url(#clip-path)">
      <g id="Group_3" data-name="Group 3" transform="translate(-337.861 -161.777)" clip-path="url(#clip-path-2)">
        <path id="Path_1" data-name="Path 1" d="M-5-78H28.016v30.448H-5Z" transform="translate(341.027 237.943)" fill="#FFFFFF"/>
      </g>
    </g>
  </g>
</svg>
